<?xml version="1.0" standalone="no"?>
<!DOCTYPE svg PUBLIC "-//W3C//DTD SVG 20010904//EN"
 "http://www.w3.org/TR/2001/REC-SVG-20010904/DTD/svg10.dtd">
<svg version="1.0" xmlns="http://www.w3.org/2000/svg"
 width="550.000000pt" height="550.000000pt" viewBox="0 0 550.000000 550.000000"
 preserveAspectRatio="xMidYMid meet">
<metadata>
Created by potrace 1.14, written by Peter Selinger 2001-2017
</metadata>
<g transform="translate(0.000000,550.000000) scale(0.100000,-0.100000)"
fill="#000000" stroke="none">
<path d="M2240 5437 c0 -8 22 -19 54 -26 85 -19 126 -68 126 -151 0 -22 -50
-351 -110 -732 -61 -381 -203 -1276 -316 -1988 -112 -712 -211 -1322 -220
-1355 -8 -33 -22 -70 -30 -83 -21 -32 -68 -58 -115 -66 -26 -4 -39 -11 -36
-19 4 -14 585 -23 599 -9 9 9 157 876 158 919 0 28 -55 92 -95 109 -25 11 41
13 433 14 254 0 462 -3 462 -7 0 -5 31 -208 69 -452 45 -284 66 -452 61 -465
-16 -42 -70 -79 -132 -90 -24 -4 -38 -12 -38 -22 0 -12 45 -14 328 -12 320 3
327 3 324 23 -5 47 -692 4382 -697 4403 l-5 22 -410 0 c-336 0 -410 -2 -410
-13z m534 -999 c8 -69 22 -156 186 -1188 60 -382 113 -707 116 -723 l6 -27
-317 0 -316 0 6 33 c8 48 233 1495 240 1547 3 25 15 97 25 160 26 159 33 211
31 238 0 12 3 22 8 22 5 0 12 -28 15 -62z"/>
<path d="M1803 5268 l-143 -61 0 -1805 c0 -993 4 -1802 8 -1797 5 6 75 447
156 980 l146 970 0 888 c0 703 -3 887 -12 886 -7 0 -77 -28 -155 -61z"/>
<path d="M3549 4553 c0 -428 -2 -818 -4 -868 -3 -76 20 -242 146 -1075 82
-541 149 -990 149 -997 0 -7 5 -13 10 -13 16 0 14 3595 -2 3608 -14 10 -279
122 -291 122 -4 0 -7 -350 -8 -777z"/>
<path d="M1330 4800 l-135 -58 0 -1574 0 -1573 22 -110 c32 -154 74 -301 126
-436 56 -145 137 -319 148 -319 5 0 9 926 9 2065 0 1960 -1 2065 -17 2064 -10
0 -79 -27 -153 -59z"/>
<path d="M4020 2795 c0 -1136 3 -2065 8 -2065 10 1 106 210 154 338 50 133
100 315 124 452 18 100 19 184 19 1663 l0 1558 -143 60 c-78 32 -147 59 -152
59 -7 0 -10 -698 -10 -2065z"/>
<path d="M863 4347 l-143 -60 0 -1416 c0 -1180 3 -1433 15 -1516 57 -395 247
-733 606 -1080 124 -120 279 -253 279 -240 0 4 -33 48 -74 99 -219 269 -381
582 -457 885 -60 236 -59 199 -59 1867 0 1213 -3 1524 -12 1523 -7 -1 -77 -28
-155 -62z"/>
<path d="M4490 2912 c0 -973 -4 -1536 -10 -1603 -42 -406 -224 -830 -501
-1164 -118 -142 -117 -146 13 -38 367 305 617 641 728 981 75 231 71 136 68
1755 l-3 1449 -127 53 c-70 29 -136 56 -147 60 l-21 6 0 -1499z"/>
</g>
</svg>
